<?xml version="1.0" encoding="iso-8859-1"?>
<!-- Generator: Adobe Illustrator 19.0.0, SVG Export Plug-In . SVG Version: 6.00 Build 0)  -->
<svg version="1.1" id="Layer_1" xmlns="http://www.w3.org/2000/svg" xmlns:xlink="http://www.w3.org/1999/xlink" x="0px" y="0px"
	 viewBox="0 0 512.001 512.001" style="enable-background:new 0 0 512.001 512.001;" xml:space="preserve">
<path style="fill:#FFFFFF;" d="M473.104,371.85c0.176-0.61,0.336-1.227,0.479-1.848c0.046-0.201,0.089-0.403,0.131-0.604
	c0.113-0.54,0.213-1.085,0.3-1.632c0.037-0.237,0.076-0.474,0.11-0.711c0.075-0.546,0.131-1.095,0.18-1.644
	c0.021-0.225,0.047-0.448,0.063-0.674c0.052-0.767,0.084-1.537,0.084-2.313l0,0l0,0v-0.006l-0.006-40.904v-0.002l-0.005-26.203
	v-0.002v-4.213l-0.004-25.574l0,0l-0.008-48.824l-0.005-26.203l-0.006-40.985c0-2.995-0.408-5.931-1.16-8.75
	c-0.405-1.517-0.915-2.997-1.521-4.435c-2.477-5.876-6.574-11.016-11.925-14.74c-0.784-0.545-1.584-1.071-2.419-1.553
	l-22.874-13.202l-21.414-12.358l-17.239-9.949l-65.926-38.046l-25.717-14.844l-19.288-11.132l-11.953-6.899
	c-10.533-6.078-23.509-6.076-34.04,0.007l-11.872,6.857l-19.288,11.14l-25.717,14.853l0,0l-65.918,38.072l-28.889,16.686
	L65.85,113.578l-11.284,6.516c-0.811,0.469-1.59,0.98-2.353,1.507c-3.272,2.268-6.073,5.067-8.333,8.236
	c-1.517,2.127-2.781,4.422-3.773,6.841c-1.655,4.032-2.558,8.399-2.557,12.899l0.006,40.913l0.005,26.203l0.012,73.738v4.011v0.85
	v0.001v0.013l0,0v0.005l0,0l0.005,26.198v0.002v1.863l0.002,12.617l0.004,26.496v0.007l0,0c0,0.773,0.033,1.539,0.084,2.305
	c0.016,0.224,0.042,0.445,0.061,0.668c0.048,0.55,0.105,1.096,0.18,1.638c0.033,0.236,0.072,0.471,0.108,0.708
	c0.087,0.544,0.186,1.086,0.298,1.625c0.042,0.201,0.086,0.403,0.131,0.603c0.14,0.615,0.298,1.222,0.471,1.825
	c0.033,0.113,0.061,0.228,0.095,0.34c0.909,3.043,2.24,5.93,3.94,8.588c0,0.001,0.001,0.002,0.001,0.002
	c0,0.001,0.001,0.002,0.001,0.002c1.172,1.832,2.517,3.551,4.026,5.137c0.051,0.053,0.099,0.106,0.148,0.159
	c0.709,0.734,1.454,1.438,2.231,2.112c0.125,0.11,0.254,0.215,0.382,0.322c0.786,0.661,1.595,1.298,2.445,1.89
	c0.784,0.545,1.584,1.07,2.419,1.553l22.552,13.016l21.414,12.359l17.561,10.134l91.644,52.89l19.288,11.132l11.953,6.899
	c10.533,6.078,23.509,6.076,34.04-0.007l11.872-6.857l19.288-11.14l25.717-14.853l55.554-32.086l10.363-5.985l26.36-15.225
	l21.408-12.365l13.813-7.977c0.811-0.469,1.59-0.98,2.353-1.507c0.851-0.588,1.659-1.226,2.446-1.884
	c0.128-0.106,0.258-0.212,0.385-0.323c0.78-0.671,1.526-1.374,2.237-2.108c0.047-0.048,0.09-0.098,0.136-0.145
	c3.724-3.893,6.476-8.61,8.02-13.767C473.045,372.067,473.073,371.958,473.104,371.85z"/>
<g>
	<path style="fill:#ED1F34;" d="M426.671,102.298l-13.568-7.83l-17.239-9.949l-65.925-38.046l-25.717-14.844l-19.288-11.132
		l-11.953-6.899c-10.533-6.078-23.509-6.076-34.04,0.007l-0.552,0.318v88.375h188.283V102.298z"/>
	<path style="fill:#ED1F34;" d="M116.137,427.481l91.644,52.89l19.288,11.132l11.953,6.899c10.533,6.078,23.509,6.076,34.04-0.007
		l11.872-6.857l19.288-11.14l25.717-14.853l55.554-32.086l10.363-5.985l14.869-8.588H101.241L116.137,427.481z"/>
	<path style="fill:#ED1F34;" d="M37.581,335.992l0.004,26.496v0.007l0,0c0,0.773,0.033,1.539,0.084,2.305
		c0.016,0.224,0.042,0.445,0.061,0.668c0.048,0.55,0.105,1.096,0.18,1.638c0.033,0.236,0.072,0.471,0.108,0.708
		c0.087,0.544,0.186,1.085,0.298,1.625c0.042,0.201,0.086,0.403,0.131,0.603c0.14,0.615,0.298,1.222,0.471,1.825
		c0.033,0.113,0.061,0.228,0.095,0.34c0.146,0.488,0.321,0.964,0.487,1.444h419.88h13.14c0.171-0.489,0.341-0.98,0.491-1.479
		c0.031-0.106,0.059-0.215,0.09-0.322c0.176-0.611,0.336-1.228,0.479-1.849c0.046-0.201,0.089-0.403,0.131-0.604
		c0.113-0.54,0.213-1.085,0.3-1.632c0.037-0.237,0.076-0.474,0.11-0.712c0.075-0.545,0.131-1.093,0.18-1.643
		c0.02-0.225,0.047-0.448,0.063-0.674c0.052-0.767,0.084-1.537,0.084-2.313l0,0v-0.006l-0.005-33.986H37.58L37.581,335.992z"/>
	<polygon style="fill:#ED1F34;" points="474.435,265.517 474.431,237.974 238.388,237.974 238.388,283.209 474.438,283.209 	"/>
	<path style="fill:#ED1F34;" d="M238.388,192.754h88.29h147.745v-2.264l-0.006-40.985c0-0.661-0.028-1.318-0.066-1.971H238.388
		V192.754z"/>
</g>
<path style="fill:#164FCE;" d="M227.067,20.462l-19.288,11.14l-25.717,14.853l0,0l-65.917,38.072l-28.889,16.686l-1.881,1.085
	l-19.527,11.279l-11.284,6.516c-0.811,0.469-1.59,0.98-2.353,1.507c-3.272,2.268-6.073,5.067-8.333,8.236
	c-1.517,2.127-2.781,4.422-3.773,6.841c-1.403,3.418-2.259,7.078-2.488,10.856c-0.041,0.679-0.069,1.359-0.069,2.043l0.006,40.913
	v2.264l0.004,23.939l0.004,21.281l0.007,45.234h200.816v-45.234v-45.221v-45.22v-45.234V13.924L227.067,20.462z"/>
<g>
	<circle style="fill:#FFFFFF;" cx="167.978" cy="95.61" r="7.326"/>
	<circle style="fill:#FFFFFF;" cx="208.314" cy="95.61" r="7.326"/>
	<circle style="fill:#FFFFFF;" cx="67.112" cy="154.222" r="7.326"/>
	<circle style="fill:#FFFFFF;" cx="107.461" cy="154.222" r="7.326"/>
	<circle style="fill:#FFFFFF;" cx="147.797" cy="154.222" r="7.326"/>
	<circle style="fill:#FFFFFF;" cx="188.146" cy="154.222" r="7.326"/>
	<circle style="fill:#FFFFFF;" cx="87.28" cy="134.681" r="7.326"/>
	<circle style="fill:#FFFFFF;" cx="127.629" cy="134.681" r="7.326"/>
	<circle style="fill:#FFFFFF;" cx="167.978" cy="134.681" r="7.326"/>
	<circle style="fill:#FFFFFF;" cx="208.314" cy="134.681" r="7.326"/>
	<circle style="fill:#FFFFFF;" cx="107.461" cy="115.151" r="7.326"/>
	<circle style="fill:#FFFFFF;" cx="147.797" cy="115.151" r="7.326"/>
	<circle style="fill:#FFFFFF;" cx="188.146" cy="115.151" r="7.326"/>
	<circle style="fill:#FFFFFF;" cx="87.28" cy="251.905" r="7.326"/>
	<circle style="fill:#FFFFFF;" cx="127.629" cy="251.905" r="7.326"/>
	<circle style="fill:#FFFFFF;" cx="167.978" cy="251.905" r="7.326"/>
	<circle style="fill:#FFFFFF;" cx="208.314" cy="251.905" r="7.326"/>
	<circle style="fill:#FFFFFF;" cx="87.28" cy="212.835" r="7.326"/>
	<circle style="fill:#FFFFFF;" cx="127.629" cy="212.835" r="7.326"/>
	<circle style="fill:#FFFFFF;" cx="167.978" cy="212.835" r="7.326"/>
	<circle style="fill:#FFFFFF;" cx="208.314" cy="212.835" r="7.326"/>
	<circle style="fill:#FFFFFF;" cx="67.112" cy="193.293" r="7.326"/>
	<circle style="fill:#FFFFFF;" cx="107.461" cy="193.293" r="7.326"/>
	<circle style="fill:#FFFFFF;" cx="147.797" cy="193.293" r="7.326"/>
	<circle style="fill:#FFFFFF;" cx="188.146" cy="193.293" r="7.326"/>
	<circle style="fill:#FFFFFF;" cx="87.28" cy="173.764" r="7.326"/>
	<circle style="fill:#FFFFFF;" cx="127.629" cy="173.764" r="7.326"/>
	<circle style="fill:#FFFFFF;" cx="167.978" cy="173.764" r="7.326"/>
	<circle style="fill:#FFFFFF;" cx="208.314" cy="173.764" r="7.326"/>
	<circle style="fill:#FFFFFF;" cx="67.112" cy="232.376" r="7.326"/>
	<circle style="fill:#FFFFFF;" cx="107.461" cy="232.376" r="7.326"/>
	<circle style="fill:#FFFFFF;" cx="147.797" cy="232.376" r="7.326"/>
	<circle style="fill:#FFFFFF;" cx="188.146" cy="232.376" r="7.326"/>
</g>
<path d="M483.457,149.503c0-3.711-0.494-7.438-1.465-11.078c-0.506-1.899-1.155-3.789-1.925-5.615
	c-3.179-7.544-8.398-13.991-15.096-18.652c-1.118-0.778-2.089-1.4-3.062-1.961L277.499,5.767C270.96,1.994,263.514,0,255.965,0
	c-7.555,0-15.005,1.996-21.547,5.776L50.043,112.265c-0.95,0.549-1.896,1.152-2.978,1.902c-4.086,2.831-7.635,6.335-10.547,10.421
	c-1.912,2.683-3.519,5.597-4.775,8.658c-2.147,5.23-3.234,10.724-3.234,16.334l0.035,212.917c0,0.921,0.034,1.876,0.105,2.919
	c0.016,0.234,0.037,0.469,0.061,0.702l0.014,0.143c0.061,0.693,0.134,1.385,0.231,2.095c0.034,0.24,0.071,0.477,0.108,0.716
	l0.025,0.16c0.11,0.691,0.235,1.378,0.38,2.075c0.053,0.254,0.107,0.508,0.163,0.746c0.177,0.779,0.377,1.547,0.608,2.351
	l0.112,0.393c1.144,3.827,2.821,7.486,4.988,10.875c1.484,2.322,3.198,4.509,5.089,6.494c0.04,0.042,0.153,0.164,0.195,0.206
	c0.896,0.929,1.847,1.83,2.81,2.663l0.498,0.419c1.093,0.919,2.105,1.699,3.096,2.388c1.096,0.764,2.096,1.403,3.064,1.963
	l184.411,106.428c6.538,3.773,13.985,5.768,21.534,5.768l0,0c7.554,0,15.005-1.998,21.547-5.776l184.372-106.49
	c0.945-0.545,1.89-1.149,2.982-1.905c0.986-0.682,1.999-1.461,3.181-2.448c0.14-0.116,0.278-0.231,0.405-0.34
	c0.99-0.854,1.941-1.752,2.84-2.681l0.159-0.171c4.695-4.904,8.206-10.929,10.149-17.421l0.116-0.406
	c0.224-0.775,0.427-1.556,0.605-2.34l0.169-0.773c0.143-0.684,0.27-1.374,0.398-2.177c0.042-0.259,0.082-0.518,0.121-0.792
	c0.094-0.69,0.168-1.383,0.228-2.071l0.014-0.143c0.024-0.24,0.047-0.48,0.063-0.721c0.071-1.043,0.105-1.999,0.105-2.931
	L483.457,149.503z M465.376,156.574l0.005,27.139H326.678c-4.993,0-9.041,4.047-9.041,9.041s4.048,9.041,9.041,9.041h138.705
	l0.004,27.139H248.181v-27.139h37.794c4.993,0,9.041-4.047,9.041-9.041s-4.048-9.041-9.041-9.041h-37.794v-27.139H465.376z
	 M465.39,247.016l0.005,27.151H248.181v-27.151H465.39z M465.398,292.251l0.005,27.139H46.619l-0.005-27.139H465.398z
	 M454.647,129.003c3.477,2.419,6.261,5.682,8.135,9.489H248.181v-27.152h176.067l28.619,16.517
	C453.391,128.159,453.956,128.523,454.647,129.003z M268.46,21.429l124.455,71.827H248.181V19.334
	c2.505-0.82,5.132-1.251,7.784-1.251C260.346,18.083,264.666,19.24,268.46,21.429z M48.472,140.11
	c0.729-1.781,1.662-3.472,2.769-5.025c1.696-2.378,3.755-4.415,6.119-6.053c0.668-0.463,1.216-0.815,1.725-1.109l171.013-98.771
	v245.015H46.612l-0.02-124.592C46.59,146.336,47.223,143.151,48.472,140.11z M268.539,490.566
	c-3.796,2.192-8.119,3.351-12.502,3.351c-4.381,0-8.701-1.159-12.496-3.348l-108.541-62.642h241.992L268.539,490.566z
	 M452.913,384.076l-44.614,25.768H103.666l-44.534-25.702c-0.529-0.305-1.095-0.669-1.775-1.143
	c-0.131-0.092-0.277-0.205-0.417-0.307h308.499c4.993,0,9.041-4.047,9.041-9.041s-4.048-9.041-9.041-9.041H46.731l-0.041-0.422
	c-0.039-0.561-0.064-1.125-0.064-1.699l-0.004-25.017h418.783l0.004,24.951c0,0.571-0.025,1.138-0.061,1.678l-0.049,0.509h-59.76
	c-4.993,0-9.041,4.047-9.041,9.041s4.048,9.041,9.041,9.041h49.476c-0.123,0.09-0.252,0.189-0.37,0.272
	C453.973,383.429,453.423,383.781,452.913,384.076z"/>
<g>
</g>
<g>
</g>
<g>
</g>
<g>
</g>
<g>
</g>
<g>
</g>
<g>
</g>
<g>
</g>
<g>
</g>
<g>
</g>
<g>
</g>
<g>
</g>
<g>
</g>
<g>
</g>
<g>
</g>
</svg>
